<?xml version="1.0" standalone="no"?>
<!DOCTYPE svg PUBLIC "-//W3C//DTD SVG 20010904//EN"
 "http://www.w3.org/TR/2001/REC-SVG-20010904/DTD/svg10.dtd">
<svg version="1.0" xmlns="http://www.w3.org/2000/svg"
 width="250.000000pt" height="250.000000pt" viewBox="0 0 250.000000 250.000000"
 preserveAspectRatio="xMidYMid meet">
<metadata>
Created by potrace 1.11, written by Peter Selinger 2001-2013
</metadata>
<g transform="translate(0.000000,250.000000) scale(0.100000,-0.100000)"
fill="#000000" stroke="none">
<path d="M0 1250 l0 -1250 1250 0 1250 0 0 1250 0 1250 -1250 0 -1250 0 0
-1250z m788 732 c2 -40 6 -50 18 -45 8 3 26 -2 39 -11 25 -16 26 -20 23 -114
-4 -120 -22 -126 -26 -8 -2 60 -7 88 -18 97 -25 20 -33 -1 -36 -96 -2 -72 -6
-90 -18 -90 -13 0 -15 25 -18 150 -1 82 0 155 3 163 11 30 30 4 33 -46z m510
-104 l-3 -163 -45 2 c-60 3 -70 20 -70 110 0 61 4 77 21 94 14 14 28 19 45 15
23 -6 24 -5 24 49 0 43 3 55 15 55 13 0 15 -22 13 -162z m800 104 c2 -40 6
-50 18 -45 8 3 25 -2 39 -11 23 -15 25 -22 25 -100 0 -96 -7 -106 -72 -109
l-43 -2 -3 150 c-1 82 0 155 3 163 11 30 30 4 33 -46z m-1160 15 c2 -12 -3
-17 -17 -17 -12 0 -21 6 -21 13 0 31 32 34 38 4z m720 0 c2 -10 -3 -17 -12
-17 -18 0 -29 16 -21 31 9 14 29 6 33 -14z m-1340 -189 c3 -140 -5 -174 -43
-184 -29 -7 -75 18 -75 41 0 19 17 19 36 0 21 -20 44 -8 44 25 0 23 -4 28 -25
28 -46 0 -55 17 -55 108 0 73 2 85 21 98 12 8 38 14 58 12 l36 -2 3 -126z m67
122 c4 -7 13 -7 26 0 15 8 19 7 19 -4 0 -9 -9 -20 -20 -26 -16 -9 -20 -23 -22
-97 -2 -58 -7 -88 -15 -91 -10 -3 -13 24 -13 112 0 105 7 135 25 106z m175
-105 l0 -112 -42 2 c-60 3 -78 29 -78 114 0 89 14 106 87 108 l33 1 0 -113z
m134 96 c12 -10 16 -33 16 -96 0 -90 -9 -107 -55 -107 -23 0 -25 -4 -25 -50 0
-42 -3 -49 -17 -46 -16 3 -18 19 -21 148 -1 79 -1 149 2 156 6 16 79 12 100
-5z m241 -97 c0 -90 -3 -109 -15 -109 -12 0 -16 19 -18 99 -3 107 1 130 21
123 8 -2 12 -34 12 -113z m135 96 c22 -22 25 -36 10 -45 -6 -4 -19 4 -29 16
-16 20 -21 21 -35 10 -16 -14 -23 -102 -10 -135 8 -21 34 -20 50 2 12 15 13
14 14 -14 0 -36 -25 -49 -65 -34 -30 11 -35 28 -35 111 0 75 19 109 60 109 11
0 29 -9 40 -20z m358 4 c17 -12 22 -25 22 -59 l0 -44 -42 -3 c-44 -3 -47 -9
-39 -60 2 -14 42 -8 47 7 9 21 34 19 34 -4 0 -26 -23 -42 -61 -43 -46 -2 -59
22 -59 109 0 60 4 77 20 93 24 24 48 25 78 4z m150 -12 c17 -22 15 -32 -7 -32
-10 0 -22 8 -25 17 -6 15 -8 15 -23 0 -15 -15 -13 -19 25 -61 44 -48 51 -70
29 -100 -24 -33 -97 -17 -97 20 0 17 14 18 40 2 14 -9 23 -9 30 -2 15 15 3 39
-36 69 -25 19 -34 34 -34 55 0 53 64 74 98 32z m80 -84 c-2 -67 -7 -113 -13
-113 -6 0 -11 46 -13 113 -2 96 0 112 13 112 13 0 15 -16 13 -112z m152 -35
c0 -135 -1 -143 -22 -157 -12 -9 -30 -16 -40 -16 -19 0 -58 34 -58 50 0 16 32
11 45 -7 11 -15 15 -15 29 -4 22 18 22 65 0 57 -16 -6 -54 9 -66 28 -4 6 -8
44 -8 84 0 89 17 112 79 109 l41 -1 0 -143z m65 137 c4 -6 13 -7 23 -1 19 9
43 4 54 -13 4 -6 8 -55 8 -109 0 -75 -3 -98 -12 -95 -9 3 -14 33 -16 93 -3 88
-11 109 -38 98 -9 -3 -14 -33 -16 -96 -2 -74 -6 -92 -18 -92 -12 0 -16 19 -18
99 -1 55 0 106 2 113 6 15 22 17 31 3z m359 -7 c3 -10 8 -39 12 -65 3 -27 10
-48 14 -48 4 0 11 24 14 53 4 29 11 58 15 66 11 18 33 4 27 -17 -2 -10 -19
-79 -36 -154 -24 -103 -36 -138 -47 -138 -11 0 -14 7 -10 23 17 70 17 98 -2
186 -11 51 -18 97 -15 102 9 15 22 10 28 -8z"/>
<path d="M1227 1903 c-4 -3 -7 -40 -7 -80 0 -71 1 -74 23 -71 20 3 22 9 25 66
3 71 -16 111 -41 85z"/>
<path d="M2107 1903 c-4 -3 -7 -40 -7 -80 0 -71 1 -74 23 -71 20 3 22 9 25 66
3 71 -16 111 -41 85z"/>
<path d="M234 1897 c-3 -8 -4 -43 -2 -78 3 -58 5 -64 26 -67 22 -3 23 -2 20
75 -3 65 -6 78 -21 81 -9 2 -20 -3 -23 -11z"/>
<path d="M487 1903 c-4 -3 -7 -40 -7 -80 0 -71 1 -74 23 -71 20 3 22 9 25 66
3 71 -16 111 -41 85z"/>
<path d="M637 1903 c-4 -3 -7 -40 -7 -80 0 -71 1 -74 23 -71 20 3 22 9 25 72
2 49 -1 72 -10 77 -16 11 -23 11 -31 2z"/>
<path d="M1373 1899 c-18 -18 -3 -49 23 -49 26 0 33 27 12 48 -15 15 -21 15
-35 1z"/>
<path d="M1737 1903 c-4 -3 -7 -40 -7 -80 0 -71 1 -74 23 -71 20 3 22 9 25 66
3 71 -16 111 -41 85z"/>
</g>
</svg>
